# xmcd
#
# Track frame offsets:
#	150
#	29693
#	41108
#	59396
#	87281
#	113989
#	166656
#
# Disc length: 2305 seconds
#
# Revision: 1
# Processed by: cddbd v1.5.2PL0 Copyright (c) Steve Scherf et al.
# Submitted via: audiograbber 1.83.01
#
DISCID=5808ff07
DTITLE=Johnny Shines - Live 1974
DYEAR=1974
DGENRE=Blues
TTITLE0=Won't You Tell Me Mama
TTITLE1=Goin Down In The Bottom
TTITLE2=Bumble Bee Blues
TTITLE3=Workin' On The Station
TTITLE4=Moanin' The Blues
TTITLE5=Talking-Just A Little Tenderness
TTITLE6=Guitar Boogie
EXTD=
EXTT0=
EXTT1=
EXTT2=
EXTT3=
EXTT4=
EXTT5=
EXTT6=
PLAYORDER=
